<svg width="25" height="25" viewBox="0 0 25 25" fill="none" xmlns="http://www.w3.org/2000/svg">
<g clip-path="url(#clip0_1024_21)">
<path d="M23.4588 7.40625V1.40625H17.4588" stroke="black" stroke-width="2" stroke-linecap="round" stroke-linejoin="round"/>
<path d="M16.4588 8.40625L23.4588 1.40625" stroke="black" stroke-width="2" stroke-linecap="round" stroke-linejoin="round"/>
<path d="M22.4588 17.3263V20.3263C22.4599 20.6048 22.4029 20.8805 22.2913 21.1357C22.1797 21.3909 22.0161 21.6199 21.8109 21.8082C21.6057 21.9965 21.3634 22.1398 21.0995 22.2291C20.8357 22.3183 20.5562 22.3514 20.2788 22.3263C17.2016 21.992 14.2458 20.9405 11.6488 19.2563C9.23262 17.721 7.18413 15.6725 5.6488 13.2563C3.95877 10.6476 2.90704 7.67734 2.5788 4.58635C2.55381 4.30981 2.58667 4.03111 2.6753 3.76797C2.76392 3.50484 2.90637 3.26304 3.09356 3.05797C3.28076 2.8529 3.5086 2.68906 3.76259 2.57687C4.01657 2.46468 4.29114 2.40661 4.5688 2.40635H7.5688C8.0541 2.40157 8.52459 2.57343 8.89256 2.88988C9.26053 3.20633 9.50087 3.64579 9.5688 4.12635C9.69542 5.08641 9.93025 6.02907 10.2688 6.93635C10.4033 7.29427 10.4325 7.68326 10.3527 8.05723C10.2729 8.43119 10.0877 8.77446 9.8188 9.04635L8.5488 10.3163C9.97235 12.8199 12.0452 14.8928 14.5488 16.3163L15.8188 15.0463C16.0907 14.7775 16.4339 14.5922 16.8079 14.5124C17.1819 14.4327 17.5709 14.4618 17.9288 14.5963C18.8361 14.9349 19.7787 15.1697 20.7388 15.2963C21.2246 15.3649 21.6682 15.6096 21.9853 15.9838C22.3025 16.3581 22.471 16.8359 22.4588 17.3263Z" stroke="black" stroke-width="2" stroke-linecap="round" stroke-linejoin="round"/>
</g>
<defs>
<clipPath id="clip0_1024_21">
<rect width="24" height="24" fill="white" transform="translate(0.458801 0.40625)"/>
</clipPath>
</defs>
</svg>
