<svg width="26" height="26" viewBox="0 0 26 26" fill="none" xmlns="http://www.w3.org/2000/svg">
<path d="M15.6325 9.27505L16.0776 9.42628L16.1492 9.21563L16.0317 9.02672L15.6325 9.27505ZM14.6063 12.2954L14.1612 12.1441L14.1612 12.1441L14.6063 12.2954ZM14.8294 12.5201L14.676 12.0757L14.676 12.0757L14.8294 12.5201ZM18.1184 11.3852L17.965 10.9408L17.965 10.9408L18.1184 11.3852ZM18.1353 11.3784L18.3101 10.942L18.122 10.8666L17.938 10.9517L18.1353 11.3784ZM24.8226 6.48043C24.8226 9.13396 22.6891 11.2788 20.065 11.2788V12.2191C23.2153 12.2191 25.7628 9.64634 25.7628 6.48043H24.8226ZM20.065 1.68204C22.6891 1.68204 24.8226 3.8269 24.8226 6.48043H25.7628C25.7628 3.31452 23.2153 0.74179 20.065 0.74179V1.68204ZM15.3074 6.48043C15.3074 3.8269 17.4409 1.68204 20.065 1.68204V0.74179C16.9147 0.74179 14.3671 3.31452 14.3671 6.48043H15.3074ZM16.0317 9.02672C15.5729 8.28922 15.3074 7.41691 15.3074 6.48043H14.3671C14.3671 7.59711 14.6843 8.64081 15.2333 9.52337L16.0317 9.02672ZM15.0515 12.4466L16.0776 9.42628L15.1874 9.12382L14.1612 12.1441L15.0515 12.4466ZM14.676 12.0757C14.9159 11.993 15.1271 12.2242 15.0515 12.4466L14.1612 12.1441C13.991 12.6451 14.4666 13.1427 14.9827 12.9646L14.676 12.0757ZM17.965 10.9408L14.676 12.0757L14.9827 12.9646L18.2717 11.8296L17.965 10.9408ZM17.938 10.9517C17.9469 10.9476 17.9559 10.944 17.965 10.9408L18.2717 11.8296C18.2926 11.8224 18.3129 11.8142 18.3326 11.8051L17.938 10.9517ZM20.065 11.2788C19.4444 11.2788 18.8525 11.1592 18.3101 10.942L17.9605 11.8148C18.6122 12.0758 19.3225 12.2191 20.065 12.2191V11.2788Z" fill="black"/>
<path d="M19.6888 8.42919V8.39713C19.6924 8.057 19.728 7.78633 19.7957 7.5851C19.8633 7.38387 19.9595 7.22093 20.0841 7.09628C20.2088 6.97162 20.3584 6.85676 20.5329 6.7517C20.638 6.68759 20.7323 6.61191 20.816 6.52465C20.8997 6.43561 20.9656 6.33321 21.0137 6.21746C21.0636 6.10171 21.0885 5.9735 21.0885 5.83282C21.0885 5.6583 21.0475 5.50694 20.9656 5.37872C20.8837 5.2505 20.7742 5.15167 20.6371 5.08222C20.5 5.01277 20.3477 4.97805 20.1803 4.97805C20.0343 4.97805 19.8936 5.00832 19.7583 5.06887C19.6229 5.12941 19.5098 5.22468 19.419 5.35468C19.3282 5.48468 19.2757 5.65474 19.2614 5.86487H18.5883C18.6025 5.56214 18.6809 5.30304 18.8234 5.08756C18.9676 4.87209 19.1573 4.70737 19.3923 4.5934C19.6292 4.47943 19.8918 4.42244 20.1803 4.42244C20.4937 4.42244 20.7662 4.48477 20.9977 4.60943C21.231 4.73408 21.4108 4.90503 21.5373 5.12229C21.6655 5.33954 21.7296 5.58707 21.7296 5.86487C21.7296 6.06076 21.6993 6.23794 21.6388 6.39643C21.58 6.55492 21.4945 6.69649 21.3823 6.82115C21.2719 6.9458 21.1384 7.05621 20.9817 7.15237C20.8249 7.25031 20.6994 7.3536 20.605 7.46223C20.5106 7.56907 20.4421 7.6964 20.3993 7.8442C20.3566 7.99201 20.3335 8.17632 20.3299 8.39713V8.42919H19.6888ZM20.0307 10.0105C19.8989 10.0105 19.7859 9.96332 19.6915 9.86894C19.5971 9.77456 19.5499 9.66148 19.5499 9.5297C19.5499 9.39793 19.5971 9.28485 19.6915 9.19047C19.7859 9.09608 19.8989 9.04889 20.0307 9.04889C20.1625 9.04889 20.2756 9.09608 20.37 9.19047C20.4643 9.28485 20.5115 9.39793 20.5115 9.5297C20.5115 9.61696 20.4893 9.6971 20.4447 9.77011C20.402 9.84312 20.3441 9.90188 20.2711 9.9464C20.1999 9.98914 20.1198 10.0105 20.0307 10.0105Z" fill="black"/>
<path d="M9.5123 5.33786L6.10594 1.90493C5.73005 1.5261 5.11458 1.53572 4.75071 1.92609L2.88351 3.92928C2.84232 3.97347 2.8055 4.02159 2.77334 4.07274C2.24612 4.91131 1.79012 5.53725 1.43428 6.73033C1.01768 8.12717 1.50102 10.6389 3.1452 12.5508C4.11606 13.6798 5.02178 14.6454 5.80885 15.6115C6.38608 16.3201 7.2636 17.1997 8.05608 17.9698C10.1472 20.002 11.1113 21.0139 12.5053 22.0341C13.7998 22.8035 17.0677 24.6308 18.7786 24.9443C20.0588 25.1789 21.1535 24.615 21.6873 24.3064C21.7609 24.2639 21.8274 24.2108 21.8864 24.1496L24.3965 21.5421C24.7508 21.174 24.7463 20.5904 24.3865 20.2277L20.8588 16.6725C20.4771 16.2878 19.8502 16.305 19.4725 16.6937C18.6688 17.5209 17.6071 18.5013 17.0677 18.6221C16.1715 18.8228 15.393 18.3211 14.6281 17.9698C13.8809 17.6267 12.7678 16.9728 11.6906 15.9628C10.6134 14.9527 9.41849 13.4289 9.00205 12.8518C8.18728 11.7229 7.80714 10.5437 7.65777 9.84127C7.53828 9.27929 7.65778 8.66212 8.05608 8.23562L9.53472 6.63901C9.87707 6.26934 9.86718 5.69552 9.5123 5.33786Z" stroke="black" stroke-width="0.881483"/>
<path d="M5.79512 1.97813L9.50374 5.67037C9.69925 5.86501 9.70118 6.1825 9.50807 6.37951L8.14644 7.7686L3.72984 3.37151L5.09147 1.98242C5.28458 1.78541 5.59962 1.78349 5.79512 1.97813Z" stroke="black" stroke-width="0.881483"/>
<path d="M20.5283 16.6053L24.2756 20.4694C24.4677 20.6674 24.464 20.9849 24.2675 21.1785L22.882 22.5431L18.4392 17.962L19.8247 16.5973C20.0212 16.4037 20.3362 16.4073 20.5283 16.6053Z" stroke="black" stroke-width="0.881483"/>
</svg>
